<?xml version="1.0" encoding="UTF-8"?>
<svg id="Layer_2" xmlns="http://www.w3.org/2000/svg" viewBox="0 0 409.38 749.33">
  <defs>
    <style>
      .cls-1 {
        fill: #f4e4bd;
      }

      .cls-2 {
        fill: #262524;
      }

      .cls-3 {
        fill: #f4bfbf;
      }

      .cls-4 {
        fill: #ffc5c5;
      }

      .cls-5 {
        fill: #f4bebe;
      }

      .cls-6 {
        fill: none;
        stroke: #383838;
        stroke-linecap: round;
        stroke-linejoin: round;
        stroke-width: 5px;
      }

      .cls-7 {
        fill: #79c4e2;
      }

      .cls-8 {
        fill: #abd9bb;
      }

      .cls-9 {
        fill: #383838;
      }

      .cls-10 {
        fill: #fff8e3;
      }

      .cls-11 {
        fill: #e6a4b4;
      }

      .cls-12 {
        fill: #6fa5b5;
      }

      .cls-13 {
        fill: #f7decd;
      }
    </style>
  </defs>
  <g id="Layer_1-2" data-name="Layer_1">
    <g>
      <path class="cls-2" d="M205.72,67.18c-4.93,4.3-16.75,15.39-26.16,33.85-34.11,66.91,20.88,125.88,1.54,202.34-5.05,19.98-17.19,49.16-50.9,80.48-1.99,1.85-1.97,5.02.08,6.82,12.75,11.19,32.9,25.49,60.06,31.96,30.44,7.25,51.92.42,122.33-13.85,19.02-3.85,48.75-9.7,86.09-16.23,2.22-.39,3.84-2.33,3.82-4.58-.98-92.51-1.97-185.02-2.95-277.53-.01-1.11-.41-2.17-1.15-2.99-8.61-9.69-21.41-22.47-38.88-34.88-23.37-16.6-43.84-31.14-73.86-33.08-44-2.85-75.2,23.5-80.01,27.7Z"/>
      <path class="cls-13" d="M336.77,296.19c10.77,4.19,21.54,8.38,32.31,12.57.43-11.16.85-22.31,1.28-33.47-1.73-8.76-3.46-17.52-5.19-26.29-6.92-12.99-13.85-25.99-20.77-38.98-4.37,4.94-12.11,12.47-23.8,18.38-11.98,6.06-22.89,7.78-29.52,8.32,8.56,14.09,17.12,28.19,25.69,42.28,6.67,5.73,13.34,11.46,20,17.18Z"/>
      <path class="cls-7" d="M406.7,632.96c-9.31,2.36-20.08,4.48-32.1,5.84-10.59,1.21-20.34,1.62-29.06,1.58-1.76-.01-3.2-1.36-3.32-3.11-1.61-23.54-5.6-52.29-14.67-84.13-11.92-41.81-28.65-75.06-43.09-98.98l-112.05-25.67c-2.7-.63-4.8-2.74-5.41-5.45-5.35-23.5-9.61-51.55-10.26-83.27-.33-15.98.3-30.91,1.51-44.62,13.11,4.18,31.76,8.61,54.43,9.18,21.65.53,39.76-2.62,52.75-5.91,7.59-2.06,15.49-4.43,23.67-7.14,10.48-3.47,20.29-7.17,29.4-10.93,6.09,5.27,12.18,10.55,18.27,15.82,10.44,2.58,20.86,5.14,31.29,7.7l2.3-28.6c-.98-4.96-1.96-9.93-2.94-14.89,10.74-4.1,21.46-8.22,32.18-12.32,2.37,128.29,4.73,256.59,7.1,384.89Z"/>
      <path class="cls-11" d="M238.09,551.01c-.17.46-.35.91-.56,1.35l9.53,9.53-8.04,8.05-9.53-9.53-1.35-1.34v15.38h-11.38v-13.48c-.46-.17-.91-.35-1.35-.56l-9.53,9.53-8.05-8.05,9.53-9.53c-.2-.44-.39-.89-.56-1.35h-13.48v-11.38h13.48c.17-.46.35-.91.56-1.35l-9.53-9.53,8.05-8.05,9.53,9.53c.44-.2.89-.39,1.35-.56v-13.48h11.38v13.48c.46.17.91.35,1.35.56l9.53-9.53,8.04,8.05-9.53,9.53c.2.44.39.89.56,1.35h13.48v11.38h-13.48Z"/>
      <path class="cls-4" d="M101.44,52.26c-.21.59-.45,1.16-.71,1.72l12.14,12.14-10.25,10.26-12.15-12.15-1.72-1.71v19.61h-14.51v-17.18c-.59-.21-1.16-.45-1.72-.71l-12.14,12.14-10.26-10.26,12.14-12.14c-.26-.56-.5-1.13-.71-1.72h-17.18v-14.5h17.18c.21-.59.45-1.16.71-1.72l-12.14-12.14,10.26-10.26,12.14,12.14c.56-.26,1.13-.5,1.72-.71V7.89h14.51v17.18c.58.21,1.16.45,1.72.71l12.15-12.15,10.25,10.26-12.14,12.14c.26.56.5,1.13.71,1.72h17.18v14.5h-17.18Z"/>
      <path class="cls-3" d="M34.11,406.3c-.13.35-.27.7-.43,1.03l7.26,7.26-6.13,6.13-7.26-7.26-1.03-1.02v11.72h-8.67v-10.27c-.35-.13-.7-.27-1.03-.43l-7.26,7.26-6.13-6.13,7.26-7.26c-.15-.34-.3-.68-.43-1.03H0v-8.67h10.27c.13-.35.27-.7.43-1.03l-7.26-7.26,6.13-6.13,7.26,7.26c.34-.15.68-.3,1.03-.43v-10.27h8.67v10.27c.35.13.69.27,1.03.43l7.26-7.26,6.13,6.13-7.26,7.26c.15.34.3.68.43,1.03h10.27v8.67h-10.27Z"/>
      <path class="cls-10" d="M294.71,259.77l42.06,36.42c-4.72,13.58-9.43,27.16-14.15,40.74-1.15,3.3-5.57,3.89-7.54,1.01-9.35-13.69-18.7-27.38-28.05-41.06-1.62-2.38-2.08-5.36-1.23-8.11,2.97-9.66,5.95-19.32,8.92-28.99Z"/>
      <path class="cls-10" d="M360.87,226.95c3.16,16.11,6.33,32.23,9.49,48.34,9.75,1.67,19.49,3.33,29.24,5v-47.7c-12.91-1.88-25.82-3.76-38.72-5.64Z"/>
      <path class="cls-1" d="M336.77,296.19c10.43,2.56,20.86,5.13,31.29,7.69.77-9.53,1.54-19.06,2.31-28.59,3.31.57,6.62,1.13,9.93,1.7-4.08,8.97-8.16,17.93-12.24,26.9-11.41.34-22.82.68-34.24,1.03.98-2.91,1.97-5.81,2.95-8.72Z"/>
      <path class="cls-1" d="M316.59,278.72c-7.29-6.31-14.59-12.63-21.88-18.94,2.39-1.75,4.79-3.5,7.18-5.26,4.9,8.07,9.8,16.13,14.7,24.2Z"/>
      <path class="cls-1" d="M354.74,229.44c3.48,6.52,6.95,13.04,10.43,19.57-1.43-7.35-2.86-14.7-4.3-22.06-2.04.83-4.09,1.66-6.13,2.49Z"/>
      <circle class="cls-13" cx="284.49" cy="156.98" r="80.01" transform="translate(-27.68 247.14) rotate(-45)"/>
      <path class="cls-2" d="M380.58,101.03c-9.05,5.39-18.1,10.77-27.14,16.16-9.44,3.9-30.61,11.16-57.7,7.69-25.97-3.32-44.07-14.78-52.32-20.77,3.75,10.49,8.07,26.83,7.31,46.93-1.28,33.89-16.21,58.17-23.47,68.47-5.34,1.88-10.67,3.75-16.01,5.63-4.16-7.3-34.58-62.6-10.54-112.49,2.8-5.8,10.6-21.52,27.78-33.97,26.45-19.16,56.09-16.73,69.95-15.59,42.88,3.52,71.74,28.09,82.13,37.94Z"/>
      <g>
        <ellipse class="cls-9" cx="312.59" cy="147.09" rx="5.55" ry="5.44" transform="translate(-31.16 181.51) rotate(-30.92)"/>
        <ellipse class="cls-9" cx="267.69" cy="173.98" rx="5.55" ry="5.44" transform="translate(-51.35 162.26) rotate(-30.92)"/>
        <ellipse class="cls-5" cx="261.72" cy="201.7" rx="13.22" ry="4.51" transform="translate(-66.45 163.13) rotate(-30.92)"/>
        <ellipse class="cls-5" cx="338.82" cy="155.53" rx="13.22" ry="4.51" transform="translate(-31.77 196.18) rotate(-30.92)"/>
        <path class="cls-6" d="M313.79,182.75c2.52,4.21,1.15,9.66-3.06,12.18-4.21,2.52-9.66,1.15-12.18-3.06"/>
      </g>
      <path class="cls-12" d="M382.47,637.79c4.91,15.21,9.82,30.43,14.74,45.64v-48.26c-4.91.88-9.82,1.75-14.74,2.63Z"/>
      <rect class="cls-8" x="395.76" width="13.62" height="749.33"/>
    </g>
  </g>
</svg>