<?xml version="1.0" encoding="UTF-8"?>
<svg id="Layer_2" data-name="Layer 2" xmlns="http://www.w3.org/2000/svg" viewBox="0 0 395.05 73.23">
  <defs>
    <style>
      .cls-1 {
        fill: #3f3f3f;
      }

      .cls-2 {
        fill: #eaa2a2;
      }

      .cls-3 {
        fill: #303030;
      }

      .cls-4 {
        stroke: #8c8c8c;
      }

      .cls-4, .cls-5, .cls-6 {
        fill: none;
        stroke-miterlimit: 10;
      }

      .cls-4, .cls-6 {
        stroke-linecap: round;
      }

      .cls-7 {
        fill: #282828;
      }

      .cls-5 {
        stroke-width: .5px;
      }

      .cls-5, .cls-6 {
        stroke: #261e1e;
      }

      .cls-8 {
        fill: #abd9bb;
      }

      .cls-9 {
        fill: #8c8c8c;
      }

      .cls-10 {
        fill: #191919;
      }
    </style>
  </defs>
  <g id="Layer_3" data-name="Layer 3">
    <g>
      <rect class="cls-8" y="61.34" width="395.05" height="11.9"/>
      <g>
        <path class="cls-1" d="M208.88,0h14.19C256.73,0,284.07,27.33,284.07,61h-136.18C147.89,27.33,175.22,0,208.88,0Z"/>
        <path class="cls-7" d="M158.39,23.76h63.27v6.36c0,17.46-14.18,31.64-31.64,31.64h0c-17.46,0-31.64-14.18-31.64-31.64v-6.36h0Z" transform="translate(380.05 85.51) rotate(-180)"/>
        <path class="cls-9" d="M210.92,52.15h3.15c5.3,0,9.6,4.3,9.6,9.6h-22.35c0-5.3,4.3-9.6,9.6-9.6Z"/>
        <path class="cls-9" d="M185.19,51.4h3.15c5.3,0,9.6,4.3,9.6,9.6h-22.35c0-5.3,4.3-9.6,9.6-9.6Z"/>
        <path class="cls-3" d="M248.61,14.55l-2.11,16.1,17.64-5.68-11.1-11.85c-1.49-1.59-4.15-.73-4.43,1.43Z"/>
        <path class="cls-3" d="M289.04,14.58l1.5,16.17-17.42-6.34,11.54-11.42c1.55-1.53,4.18-.57,4.38,1.59Z"/>
        <path class="cls-10" d="M229.32,57.55c-1.35,5.39-6.24,9.39-12.05,9.39h-63.53c-7.1,0-12.86-5.75-12.86-12.85,0-6.1,4.66-11.11,10.61-11.68-.79,2.98-1.42,6.03-1.91,9.12-.7.63-1.15,1.54-1.15,2.56,0,1.91,1.55,3.46,3.46,3.46h65.74c2.54,0,4.54-2.35,3.92-5-.33-1.43-1.48-2.59-2.9-2.94-1.38-.34-2.67.04-3.6.83-.75.63-1.67,1.04-2.66,1.04-3.74,0-5.43-4.83-2.41-7.03,2.13-1.55,4.76-2.43,7.6-2.36,6.46.16,11.86,5.47,12.11,11.93.05,1.22-.08,2.41-.37,3.53Z"/>
        <path class="cls-3" d="M290.57,30.37h0c4.03,7.5,2.77,16.74-3.13,22.88l-.8.83c-4.69,4.88-11.16,7.64-17.93,7.64h-.05c-6.77,0-13.24-2.76-17.93-7.64l-.8-.83c-5.9-6.14-7.16-15.38-3.13-22.88h0c2.05-3.81,6.03-6.19,10.35-6.19h23.06c4.33,0,8.3,2.38,10.35,6.19Z"/>
        <path class="cls-9" d="M247.48,52.15h3.15c5.3,0,9.6,4.3,9.6,9.6h-22.35c0-5.3,4.3-9.6,9.6-9.6Z"/>
        <path class="cls-9" d="M272.36,52.15h3.15c5.3,0,9.6,4.3,9.6,9.6h-22.35c0-5.3,4.3-9.6,9.6-9.6Z"/>
        <path class="cls-4" d="M262.58,42.33c.14,1.9,1.71,3.38,3.59,3.43,1.91.04,3.57-1.44,3.75-3.37"/>
        <path class="cls-4" d="M278.56,42.08c.14,1.9,1.71,3.38,3.59,3.43,1.91.04,3.57-1.44,3.75-3.37"/>
        <path class="cls-2" d="M273.68,49.39l-1.05-1.04c-.57-.57-.17-1.54.63-1.54h2.11c.81,0,1.21.98.63,1.54l-1.05,1.04c-.35.35-.92.35-1.27,0Z"/>
        <line class="cls-5" x1="269.35" y1="61.75" x2="269.35" y2="57.34"/>
        <line class="cls-5" x1="273.93" y1="61.75" x2="273.93" y2="57.34"/>
        <line class="cls-5" x1="278.41" y1="61.75" x2="278.41" y2="57.34"/>
        <line class="cls-5" x1="246.48" y1="61.75" x2="246.48" y2="57.34"/>
        <line class="cls-5" x1="250.95" y1="61.75" x2="250.95" y2="57.34"/>
        <path class="cls-2" d="M288.5,27.61l-1.19-9.43c-.11-.88-1.25-1.16-1.75-.43l-4.5,6.49c2.84.2,5.47,1.41,7.44,3.37Z"/>
        <path class="cls-2" d="M257.16,24.18h2.82l-4.75-5.07c-.5-.54-1.41-.24-1.49.49l-.6,5.31c1.27-.46,2.62-.73,4.02-.73Z"/>
        <line class="cls-6" x1="263.54" y1="48.65" x2="241.16" y2="46.88"/>
        <line class="cls-6" x1="263.56" y1="50.69" x2="241.14" y2="51.84"/>
        <line class="cls-6" x1="284.91" y1="48.57" x2="302.34" y2="46.8"/>
        <line class="cls-6" x1="284.89" y1="50.61" x2="302.36" y2="51.76"/>
      </g>
    </g>
  </g>
</svg>