<?xml version="1.0" encoding="UTF-8"?>
<svg id="Layer_2" xmlns="http://www.w3.org/2000/svg" viewBox="0 0 58.25 58.25">
  <defs>
    <style>
      .cls-1 {
        fill: #e6a4b4;
      }
    </style>
  </defs>
  <g id="Layer_1-2" data-name="Layer_1">
    <path class="cls-1" d="M44.77,34.81c-.17.46-.35.91-.56,1.35l9.53,9.53-8.04,8.05-9.53-9.53-1.35-1.34v15.38h-11.38v-13.48c-.46-.17-.91-.35-1.35-.56l-9.53,9.53-8.05-8.05,9.53-9.53c-.2-.44-.39-.89-.56-1.35H0v-11.38h13.48c.17-.46.35-.91.56-1.35L4.51,12.55,12.55,4.51l9.53,9.53c.44-.2.89-.39,1.35-.56V0h11.38v13.48c.46.17.91.35,1.35.56l9.53-9.53,8.04,8.05-9.53,9.53c.2.44.39.89.56,1.35h13.48v11.38h-13.48Z"/>
  </g>
</svg>