<?xml version="1.0" encoding="UTF-8"?>
<svg id="Layer_2" data-name="Layer 2" xmlns="http://www.w3.org/2000/svg" xmlns:xlink="http://www.w3.org/1999/xlink" viewBox="0 0 771.52 620.65">
  <defs>
    <style>
      .cls-1 {
        fill: url(#linear-gradient);
      }

      .cls-2 {
        fill: #f4e4bd;
      }

      .cls-3 {
        fill: #262524;
      }

      .cls-4 {
        fill: #f4bfbf;
      }

      .cls-5 {
        fill: #ffc5c5;
      }

      .cls-6 {
        fill: #f4bebe;
      }

      .cls-7 {
        fill: none;
        stroke: #383838;
        stroke-linecap: round;
        stroke-linejoin: round;
        stroke-width: 5px;
      }

      .cls-8 {
        fill: #79c4e2;
      }

      .cls-9 {
        fill: #abd9bb;
      }

      .cls-10 {
        fill: #383838;
      }

      .cls-11 {
        fill: #fff8e3;
      }

      .cls-12 {
        fill: #e6a4b4;
      }

      .cls-13 {
        fill: #f7decd;
      }
    </style>
    <linearGradient id="linear-gradient" x1="538.04" y1="488.82" x2="528.91" y2="554.15" gradientUnits="userSpaceOnUse">
      <stop offset="0" stop-color="#f7decd"/>
      <stop offset=".63" stop-color="#f4dbca"/>
      <stop offset="1" stop-color="#edd5c5"/>
    </linearGradient>
  </defs>
  <g id="Layer_2-2" data-name="Layer 2">
    <g>
      <path class="cls-3" d="M368.09,86.84c-6.52.59-22.59,2.65-41.04,12.09-66.86,34.22-56.87,114.23-117.36,164.84-15.81,13.22-42.74,29.75-88.42,35.36-2.68.33-4.54,2.89-3.94,5.53,4.82,21.19,20.14,50.75,29.94,61.14,39.89,42.32,121.64,58.79,228.59,67.66,42.77,3.55,101.33,6.84,171.68,5.92,5.34-.07,8.77-5.7,6.4-10.5-22.94-46.44-33.15-83.32-38.16-107.39-1.91-9.18-12.17-60.25-15.13-89.04-.32-3.13-1.44-14.37-4.82-29.07-1.52-6.6-3.53-14-6.24-21.97-9.21-27.15-17.27-50.93-40.45-70.1-33.97-28.1-74.7-25.04-81.06-24.46Z"/>
      <path class="cls-13" d="M207.16,290.91c-54.42-56.17-87.58-107.29-85.25-131.91.56-5.87,1.65-10.72,1.65-10.72,21.99-28.95,31.01-45.48,27.06-49.6-2.99-3.12-13.43.89-31.31,12.04-2.45-31.5-18.61-52.99-35.66-54.5-10.8-.96-20.83,6.2-26.26,13.25-17.24,22.38-3.59,64.75,17.05,89.38,2.8,3.34,5.33,5.88,7.02,7.5,8.97,58.22,26.59,124.88,60.19,193.65,6.04,12.37,12.31,24.2,18.72,35.51,5.12-16.36,11.72-34.44,20.29-53.63,8.59-19.23,17.68-36.23,26.48-50.97Z"/>
      <path class="cls-8" d="M258.01,581.02c-.26,2.41-.54,4.79-.84,7.15h316.7c-4.64-12.07-9.17-24.7-13.52-37.88-1.48-4.5-3.45-10.68-7.23-23.09-5.43-17.8-9.65-32.71-12.58-43.36,2.96-.63,5.95-1.31,9-2.06,9.69-2.39,22.27-5.99,36.55-11.51,5.63-2.17,10.69-4.32,15.12-6.31,3.42-1.53,4.62-5.77,2.5-8.86-4.77-6.99-10.91-16.39-17.51-27.7-12.04-20.6-14.87-29.12-34.13-65.31-12.04-22.62-21.11-38.43-39.8-48.77-3.62-2-6.79-3.35-8.99-4.21-.42-.14-3.98-1.34-8.23-1.97-10.38-1.54-25.27.28-44.67,4.44-1.89.41-4.9,1.07-8.61,1.97-1.42,3.88-2.85,7.75-4.27,11.63-10.92-.21-21.83-.4-32.76-.61-.95,4.97-1.9,9.94-2.85,14.91l-1.92,3.84c-4.05,7.25-8.11,14.51-12.16,21.76-8.63-6.4-17.25-12.8-25.88-19.2-3.48-7.02-6.96-14.05-10.44-21.07-7.73.02-18.33-.15-30.94-.96-5.91-.38-15.48-1-24.62-2.25-13.29-1.82-31.25-5.69-51.12-14.3-20.8-9.03-36.43-20.13-47.02-28.92-6.26,12.25-12.44,25.86-18.13,40.8-11.28,29.65-17.86,57.25-21.71,81.04-.45,2.74.71,5.49,2.97,7.08l94.25,65.8c4.42,27.59,7.47,64.68,2.84,107.92Z"/>
      <path class="cls-5" d="M650.31,149.57c-.21.59-.45,1.16-.71,1.72l12.14,12.14-10.25,10.26-12.15-12.15-1.72-1.71v19.61h-14.51v-17.18c-.59-.21-1.16-.45-1.72-.71l-12.14,12.14-10.26-10.26,12.14-12.14c-.26-.56-.5-1.13-.71-1.72h-17.18v-14.5h17.18c.21-.59.45-1.16.71-1.72l-12.14-12.14,10.26-10.26,12.14,12.14c.56-.26,1.13-.5,1.72-.71v-17.18h14.51v17.18c.58.21,1.16.45,1.72.71l12.15-12.15,10.25,10.26-12.14,12.14c.26.56.5,1.13.71,1.72h17.18v14.5h-17.18Z"/>
      <path class="cls-4" d="M34.11,274.79c-.13.35-.27.7-.43,1.03l7.26,7.26-6.13,6.13-7.26-7.26-1.03-1.02v11.72h-8.67v-10.27c-.35-.13-.7-.27-1.03-.43l-7.26,7.26-6.13-6.13,7.26-7.26c-.15-.34-.3-.68-.43-1.03H0v-8.67h10.27c.13-.35.27-.7.43-1.03l-7.26-7.26,6.13-6.13,7.26,7.26c.34-.15.68-.3,1.03-.43v-10.27h8.67v10.27c.35.13.69.27,1.03.43l7.26-7.26,6.13,6.13-7.26,7.26c.15.34.3.68.43,1.03h10.27v8.67h-10.27Z"/>
      <path class="cls-13" d="M361.91,345.88c8.63,6.4,17.25,12.8,25.88,19.2,4.4-8.49,8.79-16.98,13.19-25.48,1.79-8.75,3.59-17.5,5.38-26.25-.77-13.52-1.54-27.04-2.31-40.57-6.3,2.48-16.56,5.63-29.51,5.75-14.19.13-25.33-3.42-31.83-6.05,2.45,16.49,4.9,32.98,7.36,49.48,3.95,7.97,7.9,15.95,11.85,23.92Z"/>
      <path class="cls-11" d="M337.21,296.03l24.7,49.85c-9.6,10.7-19.2,21.4-28.81,32.1-2.34,2.6-6.64,1.44-7.35-1.99-3.33-16.24-6.66-32.48-9.99-48.72-.58-2.82.16-5.75,2-7.96,6.48-7.76,12.96-15.52,19.44-23.28Z"/>
      <path class="cls-11" d="M410.93,291.35c-3.32,16.08-6.63,32.17-9.95,48.25,12.52,10.35,25.03,20.7,37.55,31.05,2.53,2.09,6.34.28,6.32-3-.12-17.42-.24-34.83-.36-52.25-.02-2.4-1.28-4.62-3.34-5.86-10.07-6.06-20.14-12.12-30.22-18.19Z"/>
      <path class="cls-2" d="M361.91,345.88c8.63,6.4,17.25,12.8,25.88,19.2,4.4-8.49,8.79-16.98,13.19-25.48,2.83,1.8,5.67,3.61,8.5,5.41-7.23,6.69-14.46,13.38-21.69,20.07l-31.97-12.3c2.03-2.3,4.06-4.6,6.09-6.9Z"/>
      <path class="cls-2" d="M350.06,321.96c-4.28-8.64-8.57-17.29-12.85-25.93,2.88-.69,5.77-1.38,8.65-2.07,1.4,9.33,2.8,18.67,4.2,28Z"/>
      <path class="cls-2" d="M404.31,291.27c.68,7.36,1.37,14.72,2.05,22.08,1.52-7.33,3.05-14.67,4.57-22-2.21-.03-4.41-.05-6.62-.08Z"/>
      <circle class="cls-13" cx="371.97" cy="205.4" r="80.01" transform="translate(-36.3 323.18) rotate(-45)"/>
      <path class="cls-3" d="M483.69,226.06c-10.41-1.56-20.83-3.12-31.24-4.68-9.78-2.96-30.76-10.75-49.53-30.58-18-19.01-24.75-39.35-27.34-49.21-3.74,10.49-10.74,25.87-24.06,40.95-22.45,25.42-49.38,34.76-61.52,38.14-5.32-1.93-10.63-3.86-15.95-5.78,1.4-8.28,12.87-70.35,63.07-93.74,5.84-2.72,21.83-9.94,43.01-8.7,32.61,1.92,54,22.57,64.01,32.23,30.95,29.88,37.73,67.17,39.55,81.37Z"/>
      <g>
        <ellipse class="cls-10" cx="399.82" cy="213.2" rx="5.44" ry="5.55" transform="translate(174.76 606.47) rotate(-88.29)"/>
        <ellipse class="cls-10" cx="347.51" cy="211.64" rx="5.44" ry="5.55" transform="translate(125.58 552.67) rotate(-88.29)"/>
        <ellipse class="cls-6" cx="327.54" cy="231.77" rx="4.51" ry="13.22" transform="translate(86.08 552.24) rotate(-88.29)"/>
        <ellipse class="cls-6" cx="417.36" cy="234.46" rx="4.51" ry="13.22" transform="translate(170.53 644.63) rotate(-88.29)"/>
        <path class="cls-7" d="M381.61,243.89c-.15,4.9-4.24,8.76-9.14,8.61-4.9-.15-8.76-4.24-8.61-9.14"/>
      </g>
      <rect class="cls-9" x="390.04" y="213.5" width="13.62" height="749.33" transform="translate(985.03 191.32) rotate(90)"/>
      <path class="cls-12" d="M725.83,482.02c-.17.46-.35.91-.56,1.35l9.53,9.53-8.04,8.05-9.53-9.53-1.35-1.34v15.38h-11.38v-13.48c-.46-.17-.91-.35-1.35-.56l-9.53,9.53-8.05-8.05,9.53-9.53c-.2-.44-.39-.89-.56-1.35h-13.48v-11.38h13.48c.17-.46.35-.91.56-1.35l-9.53-9.53,8.05-8.05,9.53,9.53c.44-.2.89-.39,1.35-.56v-13.48h11.38v13.48c.46.17.91.35,1.35.56l9.53-9.53,8.04,8.05-9.53,9.53c.2.44.39.89.56,1.35h13.48v11.38h-13.48Z"/>
      <path class="cls-12" d="M274.81,19.77c-.09.26-.2.52-.32.77l5.41,5.41-4.57,4.57-5.41-5.41-.77-.76v8.73h-6.46v-7.65c-.26-.09-.52-.2-.77-.32l-5.41,5.41-4.57-4.57,5.41-5.41c-.12-.25-.22-.5-.32-.77h-7.65v-6.46h7.65c.09-.26.2-.52.32-.77l-5.41-5.41,4.57-4.57,5.41,5.41c.25-.12.5-.22.77-.32V0h6.46v7.66c.26.09.52.2.77.32l5.41-5.41,4.57,4.57-5.41,5.41c.12.25.22.5.32.77h7.65v6.46h-7.65Z"/>
      <path class="cls-1" d="M501.85,551.89c12.46,2.27,24.92,4.54,37.38,6.81,9.53-27.34,19.06-54.69,28.59-82.03-8.6,2.6-18.03,5.07-28.21,7.21-10.53,2.22-20.45,3.79-29.63,4.89-2.7,21.04-5.41,42.08-8.11,63.13Z"/>
      <path class="cls-13" d="M505.32,550.73c-21.29,6.15-36.5,28.2-32.67,34.06,1,1.53,3.79,2.71,11.67,1.16-3.62,7.97-2.8,13.38-1.8,16.37,5.43,16.37,37.2,24.67,52.69,12.56,16.12-12.6,12.15-37.59,7.81-48.87-3.19-8.28-7.48-11.71-8.45-12.45-10.68-8.21-25.42-3.94-29.25-2.84Z"/>
    </g>
  </g>
</svg>