<?xml version="1.0" encoding="UTF-8"?>
<!--Generator: Apple Native CoreSVG 232.5-->
<!DOCTYPE svg
PUBLIC "-//W3C//DTD SVG 1.1//EN"
       "http://www.w3.org/Graphics/SVG/1.1/DTD/svg11.dtd">
<svg version="1.1" xmlns="http://www.w3.org/2000/svg" xmlns:xlink="http://www.w3.org/1999/xlink" width="69.6289" height="62.1338">
 <g>
  <rect height="62.1338" opacity="0" width="69.6289" x="0" y="0"/>
  <path d="M0 39.6729C5.24902 48.2422 18.9453 61.4258 37.4023 61.4258C49.1455 61.4258 52.3926 55.9326 59.2041 55.9326C64.8926 55.9326 67.1387 59.7656 68.0176 61.2549C68.2373 61.7432 68.6768 62.0361 68.9453 61.1328C69.1162 60.4736 69.2871 59.5947 69.2871 58.5449C69.2871 55.542 68.3594 49.8047 63.3545 43.5547C64.4531 40.4785 64.5752 37.085 64.5752 35.0586C64.5752 26.001 59.4482 10.1807 42.5293 0C46.0449 4.95605 50.7812 12.5488 50.7812 23.0469C50.7812 26.8555 49.7314 31.0547 48.877 33.1299C39.6973 27.8076 22.0703 13.1348 15.0146 5.63965C20.6787 14.3311 27.3682 22.168 34.79 30.4199C24.8047 24.0967 15.5029 17.041 6.83594 9.27734C15.1367 21.3379 25.6348 33.2031 39.5264 44.4092C35.5469 46.6309 31.4941 48.3643 24.5117 48.3643C16.0156 48.3643 5.63965 44.2627 0 39.6729Z" fill="#262524"/>
 </g>
</svg>
